<svg width="36" height="36" viewBox="0 0 36 36" fill="none" xmlns="http://www.w3.org/2000/svg">
<rect x="0.5" y="0.5" width="35" height="35" rx="5.5" stroke="#E9E9EA"/>
<path d="M18 14.207C15.75 14.207 13.957 16.0352 13.957 18.25C13.957 20.5 15.75 22.293 18 22.293C20.2148 22.293 22.043 20.5 22.043 18.25C22.043 16.0352 20.2148 14.207 18 14.207ZM18 20.8867C16.5586 20.8867 15.3633 19.7266 15.3633 18.25C15.3633 16.8086 16.5234 15.6484 18 15.6484C19.4414 15.6484 20.6016 16.8086 20.6016 18.25C20.6016 19.7266 19.4414 20.8867 18 20.8867ZM23.1328 14.0664C23.1328 13.5391 22.7109 13.1172 22.1836 13.1172C21.6562 13.1172 21.2344 13.5391 21.2344 14.0664C21.2344 14.5938 21.6562 15.0156 22.1836 15.0156C22.7109 15.0156 23.1328 14.5938 23.1328 14.0664ZM25.8047 15.0156C25.7344 13.75 25.4531 12.625 24.5391 11.7109C23.625 10.7969 22.5 10.5156 21.2344 10.4453C19.9336 10.375 16.0312 10.375 14.7305 10.4453C13.4648 10.5156 12.375 10.7969 11.4258 11.7109C10.5117 12.625 10.2305 13.75 10.1602 15.0156C10.0898 16.3164 10.0898 20.2188 10.1602 21.5195C10.2305 22.7852 10.5117 23.875 11.4258 24.8242C12.375 25.7383 13.4648 26.0195 14.7305 26.0898C16.0312 26.1602 19.9336 26.1602 21.2344 26.0898C22.5 26.0195 23.625 25.7383 24.5391 24.8242C25.4531 23.875 25.7344 22.7852 25.8047 21.5195C25.875 20.2188 25.875 16.3164 25.8047 15.0156ZM24.1172 22.8906C23.8711 23.5938 23.3086 24.1211 22.6406 24.4023C21.5859 24.8242 19.125 24.7188 18 24.7188C16.8398 24.7188 14.3789 24.8242 13.3594 24.4023C12.6562 24.1211 12.1289 23.5938 11.8477 22.8906C11.4258 21.8711 11.5312 19.4102 11.5312 18.25C11.5312 17.125 11.4258 14.6641 11.8477 13.6094C12.1289 12.9414 12.6562 12.4141 13.3594 12.1328C14.3789 11.7109 16.8398 11.8164 18 11.8164C19.125 11.8164 21.5859 11.7109 22.6406 12.1328C23.3086 12.3789 23.8359 12.9414 24.1172 13.6094C24.5391 14.6641 24.4336 17.125 24.4336 18.25C24.4336 19.4102 24.5391 21.8711 24.1172 22.8906Z" fill="#CB2626"/>
</svg>
