<svg width="36" height="36" viewBox="0 0 36 36" fill="none" xmlns="http://www.w3.org/2000/svg">
<rect x="0.5" y="0.5" width="35" height="35" rx="5.5" stroke="#E9E9EA"/>
<path d="M25.1367 14.5938C25.8398 14.0664 26.4727 13.4336 26.9648 12.6953C26.332 12.9766 25.5938 13.1875 24.8555 13.2578C25.6289 12.8008 26.1914 12.0977 26.4727 11.2188C25.7695 11.6406 24.9609 11.957 24.1523 12.1328C23.4492 11.3945 22.5 10.9727 21.4453 10.9727C19.4062 10.9727 17.7539 12.625 17.7539 14.6641C17.7539 14.9453 17.7891 15.2266 17.8594 15.5078C14.8008 15.332 12.0586 13.8555 10.2305 11.6406C9.91406 12.168 9.73828 12.8008 9.73828 13.5039C9.73828 14.7695 10.3711 15.8945 11.3906 16.5625C10.793 16.5273 10.1953 16.3867 9.70312 16.1055V16.1406C9.70312 17.9336 10.9688 19.4102 12.6562 19.7617C12.375 19.832 12.0234 19.9023 11.707 19.9023C11.4609 19.9023 11.25 19.8672 11.0039 19.832C11.4609 21.3086 12.832 22.3633 14.4492 22.3984C13.1836 23.3828 11.6016 23.9805 9.87891 23.9805C9.5625 23.9805 9.28125 23.9453 9 23.9102C10.6172 24.9648 12.5508 25.5625 14.6602 25.5625C21.4453 25.5625 25.1367 19.9727 25.1367 15.0859C25.1367 14.9102 25.1367 14.7695 25.1367 14.5938Z" fill="#0047AB"/>
</svg>
