<svg width="36" height="36" viewBox="0 0 36 36" fill="none" xmlns="http://www.w3.org/2000/svg">
<rect x="0.5" y="0.5" width="35" height="35" rx="5.5" stroke="#E9E9EA"/>
<path d="M27.6758 13.6445C27.4648 12.8008 26.7969 12.1328 25.9883 11.9219C24.4766 11.5 18.5 11.5 18.5 11.5C18.5 11.5 12.4883 11.5 10.9766 11.9219C10.168 12.1328 9.5 12.8008 9.28906 13.6445C8.86719 15.1211 8.86719 18.2852 8.86719 18.2852C8.86719 18.2852 8.86719 21.4141 9.28906 22.9258C9.5 23.7695 10.168 24.4023 10.9766 24.6133C12.4883 25 18.5 25 18.5 25C18.5 25 24.4766 25 25.9883 24.6133C26.7969 24.4023 27.4648 23.7695 27.6758 22.9258C28.0977 21.4141 28.0977 18.2852 28.0977 18.2852C28.0977 18.2852 28.0977 15.1211 27.6758 13.6445ZM16.5312 21.1328V15.4375L21.5234 18.2852L16.5312 21.1328Z" fill="#DF2A2A"/>
</svg>
